<?xml version="1.0" encoding="UTF-8" standalone="no"?>
<svg
   xmlns:dc="http://purl.org/dc/elements/1.1/"
   xmlns:cc="http://creativecommons.org/ns#"
   xmlns:rdf="http://www.w3.org/1999/02/22-rdf-syntax-ns#"
   xmlns:svg="http://www.w3.org/2000/svg"
   xmlns="http://www.w3.org/2000/svg"
   xmlns:sodipodi="http://sodipodi.sourceforge.net/DTD/sodipodi-0.dtd"
   xmlns:inkscape="http://www.inkscape.org/namespaces/inkscape"
   inkscape:version="1.0 (4035a4fb49, 2020-05-01)"
   sodipodi:docname="icons8-plus.svg"
   id="svg849"
   version="1.1"
   height="64px"
   width="64px"
   viewBox="0 0 128 128"
   fill="#000000">
  <metadata
     id="metadata855">
    <rdf:RDF>
      <cc:Work
         rdf:about="">
        <dc:format>image/svg+xml</dc:format>
        <dc:type
           rdf:resource="http://purl.org/dc/dcmitype/StillImage" />
        <dc:title></dc:title>
      </cc:Work>
    </rdf:RDF>
  </metadata>
  <defs
     id="defs853" />
  <sodipodi:namedview
     inkscape:current-layer="svg849"
     inkscape:window-maximized="1"
     inkscape:window-y="-8"
     inkscape:window-x="-8"
     inkscape:cy="32.598836"
     inkscape:cx="32"
     inkscape:zoom="12.984375"
     showgrid="false"
     id="namedview851"
     inkscape:window-height="1017"
     inkscape:window-width="1920"
     inkscape:pageshadow="2"
     inkscape:pageopacity="0"
     guidetolerance="10"
     gridtolerance="10"
     objecttolerance="10"
     borderopacity="1"
     bordercolor="#666666"
     pagecolor="#ffffff" />
  <path
     style="stroke-width:2.01171"
     id="path847"
     d="M 102.1454,54.807242 H 69.958102 V 22.619954 c 0,-3.419899 -2.615218,-6.035116 -6.035117,-6.035116 -3.419899,0 -6.035116,2.615217 -6.035116,6.035116 V 54.807242 H 25.700581 c -3.4199,0 -6.035117,2.615218 -6.035117,6.035117 0,3.419899 2.615217,6.035116 6.035117,6.035116 h 32.187288 v 32.187291 c 0,3.419904 2.615217,6.035114 6.035116,6.035114 3.419899,0 6.035117,-2.61521 6.035117,-6.035114 V 66.877475 H 102.1454 c 3.41989,0 6.03511,-2.615217 6.03511,-6.035116 0,-3.419899 -2.61522,-6.035117 -6.03511,-6.035117 z" />
</svg>
