<svg id="Capa_1" enable-background="new 0 0 512 512" height="512" viewBox="0 0 512 512" width="512" xmlns="http://www.w3.org/2000/svg"><g id="XMLID_1638_"><path id="XMLID_1673_" d="m502 224.569v247.404c0 16.569-13.431 30-30 30h-432c-16.569 0-30-13.431-30-30v-247.404z" fill="#f1c6dd"/><path id="XMLID_1672_" d="m502 224.569-191.661-192.005c-29.995-30.049-78.684-30.049-108.679 0l-191.66 192.005 190.654 138.702h110.691z" fill="#fff"/><path id="XMLID_1670_" d="m327.868 262.904c-19.846-19.846-52.022-19.846-71.868 0-19.846-19.846-52.022-19.846-71.867 0-19.846 19.846-19.846 52.022 0 71.867l71.867 71.868 71.868-71.868c19.845-19.845 19.845-52.021 0-71.867z" fill="#f1c6dd"/><g fill="#ff9eb1"><path id="XMLID_1665_" d="m333.97 127.138c-10.975-10.975-28.769-10.975-39.745 0-10.975-10.975-28.769-10.975-39.745 0-10.975 10.975-10.975 28.769 0 39.745l39.745 39.745 39.745-39.745c10.976-10.975 10.976-28.769 0-39.745z"/><path id="XMLID_1664_" d="m198.905 156.573c-6.911-6.911-18.116-6.911-25.027 0-6.911-6.911-18.116-6.911-25.027 0-6.911 6.911-6.911 18.116 0 25.027l25.027 25.027 25.027-25.027c6.911-6.911 6.911-18.116 0-25.027z"/><path id="XMLID_1662_" d="m20.196 494.497 203.471-147.968c19.275-14.023 45.391-14.023 64.666 0l203.471 147.968z"/></g><path id="XMLID_899_" d="m509.077 217.503-191.66-192.004c-16.396-16.426-38.209-25.472-61.417-25.472s-45.021 9.046-61.417 25.472l-191.66 192.004c-1.872 1.875-2.923 4.416-2.923 7.065v247.404c0 22.056 17.944 40 40 40h432c22.056 0 40-17.944 40-40v-247.404c0-2.649-1.051-5.19-2.923-7.065zm-489.077 254.47v-227.763l163.656 119.061-159.964 116.375c-.56.407-1.065.862-1.514 1.355-1.382-2.716-2.178-5.778-2.178-9.028zm209.55-117.358c15.82-11.509 37.079-11.51 52.9 0l188.806 137.357h-430.512zm262.45 117.358c0 3.176-.764 6.171-2.087 8.84l-161.569-117.542 163.656-119.061zm-283.262-432.344c12.617-12.64 29.402-19.602 47.262-19.602s34.645 6.961 47.262 19.602l183.402 183.731-175.318 127.544-17.13-12.462c-22.858-16.629-53.573-16.629-76.432 0l-17.13 12.462-175.318-127.545z" fill="#ff5d7d"/></g></svg>